# Blender v2.79 (sub 0) OBJ File: 'hall.blend'
# www.blender.org
mtllib table.mtl
o Cube.008_Cube.013
v -4.442257 2.356676 10.836363
v -4.442257 2.649819 10.836363
v -4.442257 2.356676 -6.456625
v -4.442257 2.649819 -6.456625
v -0.698006 2.356676 10.836363
v -0.698006 2.649819 10.836363
v -0.698006 2.356676 -6.456625
v -0.698006 2.649819 -6.456625
v -4.293892 -0.307665 10.104800
v -4.293892 -0.307665 10.704800
v -4.293892 2.628025 10.104800
v -4.293892 2.628025 10.704800
v -3.813892 -0.307665 10.104800
v -3.813892 -0.307665 10.704800
v -3.813892 2.628025 10.104800
v -3.813892 2.628025 10.704800
v -1.325761 -0.307665 10.104800
v -1.325761 -0.307665 10.704800
v -1.325761 2.628025 10.104800
v -1.325761 2.628025 10.704800
v -0.845761 -0.307665 10.104800
v -0.845761 -0.307665 10.704800
v -0.845761 2.628025 10.104800
v -0.845761 2.628025 10.704800
v -4.293892 -0.307665 1.470784
v -4.293892 -0.307665 2.070783
v -4.293892 2.628025 1.470783
v -4.293892 2.628025 2.070783
v -3.813892 -0.307665 1.470784
v -3.813892 -0.307665 2.070783
v -3.813892 2.628025 1.470783
v -3.813892 2.628025 2.070783
v -1.325761 -0.307665 1.470784
v -1.325761 -0.307665 2.070783
v -1.325761 2.628025 1.470783
v -1.325761 2.628025 2.070783
v -0.845761 -0.307665 1.470784
v -0.845761 -0.307665 2.070783
v -0.845761 2.628025 1.470783
v -0.845761 2.628025 2.070783
v -4.293892 -0.307665 -6.312130
v -4.293892 -0.307665 -5.712130
v -4.293892 2.628025 -6.312130
v -4.293892 2.628025 -5.712130
v -3.813892 -0.307665 -6.312130
v -3.813892 -0.307665 -5.712130
v -3.813892 2.628025 -6.312130
v -3.813892 2.628025 -5.712130
v -1.325761 -0.307665 -6.312130
v -1.325761 -0.307665 -5.712130
v -1.325761 2.628025 -6.312130
v -1.325761 2.628025 -5.712130
v -0.845761 -0.307665 -6.312130
v -0.845761 -0.307665 -5.712130
v -0.845761 2.628025 -6.312130
v -0.845761 2.628025 -5.712130
vt 0.377791 -2.005908
vt 0.500334 -2.005908
vt 0.500334 2.997690
vt 0.377791 2.997690
vt 0.377791 -2.005908
vt 0.500334 -2.005908
vt 0.500334 2.997690
vt 0.377791 2.997690
vt 0.377791 -2.005908
vt 0.500334 -2.005908
vt 0.500334 2.997690
vt 0.377791 2.997690
vt 0.377791 -2.005908
vt 0.500334 -2.005908
vt 0.500334 2.997690
vt 0.377791 2.997690
vt 0.000000 -2.005893
vt 1.000000 -2.005893
vt 1.000000 2.995737
vt 0.000000 2.995737
vt 0.000000 -2.005893
vt 1.000000 -2.005893
vt 1.000000 2.995737
vt 0.000000 2.995737
vt 0.384305 0.003918
vt 0.505452 0.003918
vt 0.505452 0.992145
vt 0.384305 0.992145
vt 0.384305 0.003918
vt 0.505452 0.003918
vt 0.505452 0.992145
vt 0.384305 0.992145
vt 0.384305 0.003918
vt 0.505452 0.003918
vt 0.505452 0.992145
vt 0.384305 0.992145
vt 0.384305 0.003918
vt 0.505452 0.003918
vt 0.505452 0.992145
vt 0.384305 0.992145
vt 0.505452 0.003918
vt 0.505452 0.992145
vt 0.384305 0.003918
vt 0.384305 0.992145
vt 0.384305 0.003918
vt 0.505452 0.003918
vt 0.505452 0.992145
vt 0.384305 0.992145
vt 0.384305 0.003918
vt 0.505452 0.003918
vt 0.505452 0.992145
vt 0.384305 0.992145
vt 0.384305 0.003918
vt 0.505452 0.003918
vt 0.505452 0.992145
vt 0.384305 0.992145
vt 0.384305 0.003918
vt 0.505452 0.003918
vt 0.505452 0.992145
vt 0.384305 0.992145
vt 0.505452 0.003918
vt 0.505452 0.992145
vt 0.384305 0.003918
vt 0.384305 0.992145
vt 0.384305 0.003918
vt 0.505452 0.003918
vt 0.505452 0.992145
vt 0.384305 0.992145
vt 0.384305 0.003918
vt 0.505452 0.003918
vt 0.505452 0.992145
vt 0.384305 0.992145
vt 0.384305 0.003918
vt 0.505452 0.003918
vt 0.505452 0.992145
vt 0.384305 0.992145
vt 0.384305 0.003918
vt 0.505452 0.003918
vt 0.505452 0.992145
vt 0.384305 0.992145
vt 0.505452 0.003918
vt 0.505452 0.992145
vt 0.384305 0.003918
vt 0.384305 0.992145
vt 0.384305 0.003918
vt 0.505452 0.003918
vt 0.505452 0.992145
vt 0.384305 0.992145
vt 0.384305 0.003918
vt 0.505452 0.003918
vt 0.505452 0.992145
vt 0.384305 0.992145
vt 0.384305 0.003918
vt 0.505452 0.003918
vt 0.505452 0.992145
vt 0.384305 0.992145
vt 0.384305 0.003918
vt 0.505452 0.003918
vt 0.505452 0.992145
vt 0.384305 0.992145
vt 0.505452 0.003918
vt 0.505452 0.992145
vt 0.384305 0.003918
vt 0.384305 0.992145
vt 0.384305 0.003918
vt 0.505452 0.003918
vt 0.505452 0.992145
vt 0.384305 0.992145
vt 0.384305 0.003918
vt 0.505452 0.003918
vt 0.505452 0.992145
vt 0.384305 0.992145
vt 0.384305 0.003918
vt 0.505452 0.003918
vt 0.505452 0.992145
vt 0.384305 0.992145
vt 0.384305 0.003918
vt 0.505452 0.003918
vt 0.505452 0.992145
vt 0.384305 0.992145
vt 0.505452 0.003918
vt 0.505452 0.992145
vt 0.384305 0.003918
vt 0.384305 0.992145
vt 0.384305 0.003918
vt 0.505452 0.003918
vt 0.505452 0.992145
vt 0.384305 0.992145
vt 0.384305 0.003918
vt 0.505452 0.003918
vt 0.505452 0.992145
vt 0.384305 0.992145
vt 0.384305 0.003918
vt 0.505452 0.003918
vt 0.505452 0.992145
vt 0.384305 0.992145
vt 0.384305 0.003918
vt 0.505452 0.003918
vt 0.505452 0.992145
vt 0.384305 0.992145
vt 0.505452 0.003918
vt 0.505452 0.992145
vt 0.384305 0.003918
vt 0.384305 0.992145
vn -1.0000 0.0000 0.0000
vn 0.0000 0.0000 -1.0000
vn 1.0000 0.0000 0.0000
vn 0.0000 0.0000 1.0000
vn 0.0000 -1.0000 0.0000
vn 0.0000 1.0000 0.0000
usemtl None
s off
f 1/1/1 2/2/1 4/3/1 3/4/1
f 3/5/2 4/6/2 8/7/2 7/8/2
f 7/9/3 8/10/3 6/11/3 5/12/3
f 5/13/4 6/14/4 2/15/4 1/16/4
f 3/17/5 7/18/5 5/19/5 1/20/5
f 8/21/6 4/22/6 2/23/6 6/24/6
f 9/25/1 10/26/1 12/27/1 11/28/1
f 11/29/6 12/30/6 16/31/6 15/32/6
f 15/33/3 16/34/3 14/35/3 13/36/3
f 13/37/5 14/38/5 10/39/5 9/40/5
f 11/29/2 15/41/2 13/42/2 9/40/2
f 16/43/4 12/30/4 10/39/4 14/44/4
f 17/45/1 18/46/1 20/47/1 19/48/1
f 19/49/6 20/50/6 24/51/6 23/52/6
f 23/53/3 24/54/3 22/55/3 21/56/3
f 21/57/5 22/58/5 18/59/5 17/60/5
f 19/49/2 23/61/2 21/62/2 17/60/2
f 24/63/4 20/50/4 18/59/4 22/64/4
f 25/65/1 26/66/1 28/67/1 27/68/1
f 27/69/6 28/70/6 32/71/6 31/72/6
f 31/73/3 32/74/3 30/75/3 29/76/3
f 29/77/5 30/78/5 26/79/5 25/80/5
f 27/69/2 31/81/2 29/82/2 25/80/2
f 32/83/4 28/70/4 26/79/4 30/84/4
f 33/85/1 34/86/1 36/87/1 35/88/1
f 35/89/6 36/90/6 40/91/6 39/92/6
f 39/93/3 40/94/3 38/95/3 37/96/3
f 37/97/5 38/98/5 34/99/5 33/100/5
f 35/89/2 39/101/2 37/102/2 33/100/2
f 40/103/4 36/90/4 34/99/4 38/104/4
f 41/105/1 42/106/1 44/107/1 43/108/1
f 43/109/6 44/110/6 48/111/6 47/112/6
f 47/113/3 48/114/3 46/115/3 45/116/3
f 45/117/5 46/118/5 42/119/5 41/120/5
f 43/109/2 47/121/2 45/122/2 41/120/2
f 48/123/4 44/110/4 42/119/4 46/124/4
f 49/125/1 50/126/1 52/127/1 51/128/1
f 51/129/6 52/130/6 56/131/6 55/132/6
f 55/133/3 56/134/3 54/135/3 53/136/3
f 53/137/5 54/138/5 50/139/5 49/140/5
f 51/129/2 55/141/2 53/142/2 49/140/2
f 56/143/4 52/130/4 50/139/4 54/144/4
